<svg width="32" height="21" viewBox="0 0 32 21" fill="none" xmlns="http://www.w3.org/2000/svg">
<path d="M31.3307 3.49305C31.1499 2.89507 30.7934 2.3493 30.2968 1.91039C29.8003 1.47148 29.1811 1.15483 28.5013 0.992154C26.0067 0.400879 16 0.400879 16 0.400879C16 0.400879 5.99333 0.400879 3.49733 0.992154C2.81788 1.15512 2.19906 1.47188 1.70277 1.91076C1.20648 2.34964 0.850122 2.89526 0.669333 3.49305C0 5.69889 0 10.3003 0 10.3003C0 10.3003 0 14.9016 0.669333 17.1075C0.850115 17.7055 1.20663 18.2512 1.70319 18.6901C2.19974 19.129 2.8189 19.4456 3.49867 19.6083C5.99333 20.1996 16 20.1996 16 20.1996C16 20.1996 26.0067 20.1996 28.5027 19.6083C29.1825 19.4458 29.8017 19.1292 30.2983 18.6903C30.7949 18.2513 31.1513 17.7055 31.332 17.1075C32 14.9016 32 10.3003 32 10.3003C32 10.3003 32 5.69889 31.3307 3.49305ZM12.7267 14.4777V6.12276L21.0907 10.3003L12.7267 14.4777Z" fill="white"/>
</svg>
