<svg width="32" height="32" viewBox="0 0 20 17" fill="none" xmlns="http://www.w3.org/2000/svg">
<path d="M15 13.33C13.65 13.33 12.8 13.75 12.05 14.13C11.4 14.46 10.87 14.73 10 14.73C9.1 14.73 8.6 14.48 7.95 14.13C7.2 13.75 6.38 13.33 5 13.33C3.62 13.33 2.8 13.75 2.05 14.13C1.62 14.35 1.24 14.54 0.78 14.65C0.33 14.75 0 15.11 0 15.56V15.66C0 16.26 0.56 16.69 1.14 16.57C1.88 16.42 2.44 16.14 2.95 15.88C3.6 15.55 4.12 15.28 5 15.28C5.88 15.28 6.4 15.53 7.05 15.88C7.8 16.26 8.62 16.68 10 16.68C11.38 16.68 12.2 16.26 12.95 15.88C13.6 15.55 14.13 15.28 15 15.28C15.9 15.28 16.4 15.53 17.05 15.88C17.57 16.14 18.13 16.43 18.88 16.58C19.0151 16.6064 19.1543 16.6028 19.2879 16.5694C19.4214 16.536 19.546 16.4738 19.6528 16.387C19.7597 16.3002 19.8461 16.191 19.9061 16.0671C19.9661 15.9432 19.9982 15.8076 20 15.67V15.58C20 15.12 19.66 14.76 19.21 14.66C18.75 14.56 18.38 14.37 17.95 14.14C17.2 13.75 16.35 13.33 15 13.33ZM15 8.88C13.65 8.88 12.8 9.31 12.05 9.68C11.4 10 10.87 10.28 10 10.28C9.1 10.28 8.6 10.03 7.95 9.68C7.2 9.3 6.38 8.88 5 8.88C3.62 8.88 2.8 9.31 2.05 9.68C1.62 9.89 1.24 10.09 0.77 10.2C0.33 10.3 0 10.66 0 11.11V11.21C5.71478e-05 11.3482 0.0309224 11.4847 0.0903506 11.6095C0.149779 11.7343 0.236275 11.8442 0.343549 11.9314C0.450822 12.0186 0.576174 12.0807 0.710487 12.1133C0.8448 12.146 0.984697 12.1482 1.12 12.12C1.87 11.97 2.43 11.68 2.95 11.43C3.6 11.08 4.1 10.83 5 10.83C5.9 10.83 6.4 11.08 7.05 11.43C7.8 11.81 8.62 12.23 10 12.23C11.38 12.23 12.2 11.8 12.95 11.43C13.6 11.08 14.1 10.83 15 10.83C15.9 10.83 16.4 11.08 17.05 11.43C17.57 11.69 18.13 11.98 18.88 12.13C19.0159 12.1565 19.156 12.1527 19.2903 12.1188C19.4245 12.0848 19.5497 12.0217 19.6567 11.9338C19.7637 11.8459 19.8499 11.7354 19.9093 11.6103C19.9686 11.4852 19.9996 11.3485 20 11.21V11.12C20 10.66 19.66 10.3 19.21 10.2C18.75 10.1 18.38 9.91 17.95 9.68C17.2 9.3 16.35 8.88 15 8.88ZM17.95 0.8C17.2 0.42 16.37 0 15 0C13.63 0 12.8 0.42 12.05 0.8C11.4 1.12 10.87 1.4 10 1.4C9.1 1.4 8.6 1.15 7.95 0.8C7.2 0.43 6.38 0 5 0C3.62 0 2.8 0.42 2.05 0.8C1.62 1.02 1.24 1.21 0.78 1.32C0.33 1.42 0 1.78 0 2.23V2.3C0 2.9 0.54 3.34 1.12 3.22C1.87 3.07 2.43 2.78 2.95 2.53C3.6 2.2 4.12 1.93 5 1.93C5.88 1.93 6.4 2.18 7.05 2.53C7.8 2.91 8.62 3.33 10 3.33C11.38 3.33 12.2 2.9 12.95 2.53C13.6 2.21 14.13 1.93 15 1.93C15.9 1.93 16.4 2.18 17.05 2.53C17.57 2.79 18.13 3.08 18.88 3.23C19.0159 3.25652 19.156 3.25268 19.2903 3.21875C19.4245 3.18483 19.5497 3.12166 19.6567 3.03376C19.7637 2.94586 19.8499 2.8354 19.9093 2.71028C19.9686 2.58517 19.9996 2.44848 20 2.31V2.22C20 1.76 19.66 1.4 19.21 1.3C18.75 1.2 18.38 1.02 17.95 0.8ZM15 4.43C13.65 4.43 12.8 4.86 12.05 5.23C11.4 5.58 10.9 5.83 10 5.83C9.1 5.83 8.6 5.58 7.95 5.23C7.2 4.85 6.38 4.43 5 4.43C3.62 4.43 2.8 4.86 2.05 5.23C1.62 5.46 1.25 5.65 0.79 5.75C0.34 5.85 0 6.21 0 6.67V6.76C5.71478e-05 6.89822 0.0309224 7.03469 0.0903506 7.15948C0.149779 7.28427 0.236275 7.39424 0.343549 7.4814C0.450822 7.56856 0.576174 7.63071 0.710487 7.66334C0.8448 7.69596 0.984697 7.69824 1.12 7.67C1.87 7.52 2.43 7.23 2.95 6.98C3.6 6.66 4.13 6.38 5 6.38C5.87 6.38 6.4 6.63 7.05 6.98C7.8 7.36 8.62 7.78 10 7.78C11.38 7.78 12.2 7.35 12.95 6.98C13.6 6.66 14.13 6.38 15 6.38C15.9 6.38 16.4 6.63 17.05 6.98C17.57 7.24 18.13 7.53 18.88 7.68C19.0151 7.70637 19.1543 7.70275 19.2879 7.66939C19.4214 7.63604 19.546 7.57376 19.6528 7.48696C19.7597 7.40016 19.8461 7.29096 19.9061 7.16707C19.9661 7.04318 19.9982 6.90763 20 6.77V6.68C20 6.22 19.66 5.86 19.21 5.76C18.75 5.66 18.38 5.47 17.95 5.24C17.2 4.85 16.35 4.43 15 4.43Z" fill="url(#paint0_linear_38_113)"/>
<defs>
<linearGradient id="paint0_linear_38_113" x1="10" y1="0" x2="10" y2="16.68" gradientUnits="userSpaceOnUse">
<stop stop-color="#FFBF00"/>
<stop offset="1" stop-color="#F2A60C"/>
</linearGradient>
</defs>
</svg>
