<svg width="17" height="14" viewBox="0 0 17 14" fill="none" xmlns="http://www.w3.org/2000/svg">
<path d="M15.3006 0H1.69939C0.76503 0 0.00816022 0.75 0.00816022 1.667L0 11.667C0 12.584 0.76503 13.334 1.69939 13.334H15.3006C16.235 13.334 17 12.584 17 11.667V1.667C17 0.75 16.235 0 15.3006 0ZM14.9599 3.542L8.95086 7.226C8.81529 7.30784 8.65921 7.35117 8.5 7.35117C8.34079 7.35117 8.18471 7.30784 8.04914 7.226L2.04008 3.542C1.95603 3.49451 1.88261 3.4309 1.82419 3.35498C1.76577 3.27905 1.72355 3.19237 1.70005 3.1001C1.67655 3.00782 1.67226 2.91186 1.68742 2.81792C1.70259 2.72399 1.7369 2.63401 1.78832 2.55336C1.83973 2.47272 1.90719 2.40305 1.98668 2.34852C2.06616 2.294 2.15603 2.25573 2.25093 2.236C2.34583 2.21627 2.44381 2.21549 2.53903 2.2337C2.63424 2.25192 2.72474 2.28875 2.80511 2.342L8.5 5.834L14.1949 2.342C14.2753 2.28875 14.3658 2.25192 14.461 2.2337C14.5562 2.21549 14.6542 2.21627 14.7491 2.236C14.844 2.25573 14.9338 2.294 15.0133 2.34852C15.0928 2.40305 15.1603 2.47272 15.2117 2.55336C15.2631 2.63401 15.2974 2.72399 15.3126 2.81792C15.3277 2.91186 15.3234 3.00782 15.3 3.1001C15.2765 3.19237 15.2342 3.27905 15.1758 3.35498C15.1174 3.4309 15.044 3.49451 14.9599 3.542Z" fill="url(#paint0_linear_45_454)"/>
<defs>
<linearGradient id="paint0_linear_45_454" x1="8.5" y1="0" x2="8.5" y2="13.334" gradientUnits="userSpaceOnUse">
<stop stop-color="#FFBF00"/>
<stop offset="1" stop-color="#F2A60C"/>
</linearGradient>
</defs>
</svg>
