<svg width="13" height="10" viewBox="0 0 13 10" fill="none" xmlns="http://www.w3.org/2000/svg">
<path d="M1.7055 4.03336C1.31409 3.64372 0.680929 3.64516 0.291292 4.03657C-0.0983461 4.42798 -0.0969104 5.06114 0.294498 5.45078L1.7055 4.03336ZM5 8.72397L4.2945 9.43268C4.68465 9.82107 5.31535 9.82107 5.7055 9.43268L5 8.72397ZM12.7055 2.46435C13.0969 2.07472 13.0983 1.44155 12.7087 1.05014C12.3191 0.658735 11.6859 0.6573 11.2945 1.04694L12.7055 2.46435ZM0.294498 5.45078L4.2945 9.43268L5.7055 8.01526L1.7055 4.03336L0.294498 5.45078ZM5.7055 9.43268L12.7055 2.46435L11.2945 1.04694L4.2945 8.01526L5.7055 9.43268Z" fill="#FFBF00"/>
</svg>
