<svg width="14" height="17" viewBox="0 0 14 17" fill="none" xmlns="http://www.w3.org/2000/svg">
<path d="M6.66699 0C3.167 0 0 2.68349 0 6.83426C0 9.48475 2.042 12.6023 6.11699 16.194C6.27098 16.3269 6.4676 16.4 6.67099 16.4C6.87438 16.4 7.071 16.3269 7.22499 16.194C11.292 12.6023 13.334 9.48475 13.334 6.83426C13.334 2.68349 10.167 0 6.66699 0ZM6.66699 8.33453C5.74999 8.33453 4.99999 7.5844 4.99999 6.66723C4.99999 5.75006 5.74999 4.99992 6.66699 4.99992C7.58399 4.99992 8.33399 5.75006 8.33399 6.66723C8.33399 7.5844 7.58399 8.33453 6.66699 8.33453Z" fill="url(#paint0_linear_45_496)"/>
<defs>
<linearGradient id="paint0_linear_45_496" x1="6.66699" y1="0" x2="6.66699" y2="16.4" gradientUnits="userSpaceOnUse">
<stop stop-color="#FFBF00"/>
<stop offset="1" stop-color="#F2A60C"/>
</linearGradient>
</defs>
</svg>
