<svg width="32" height="32" viewBox="0 0 22 31" fill="none" xmlns="http://www.w3.org/2000/svg">
<path d="M19.25 10.3333H17.875V7.38095C17.875 3.30667 14.795 0 11 0C7.205 0 4.125 3.30667 4.125 7.38095V10.3333H2.75C1.2375 10.3333 0 11.6619 0 13.2857V28.0476C0 29.6714 1.2375 31 2.75 31H19.25C20.7625 31 22 29.6714 22 28.0476V13.2857C22 11.6619 20.7625 10.3333 19.25 10.3333ZM11 23.619C9.4875 23.619 8.25 22.2905 8.25 20.6667C8.25 19.0429 9.4875 17.7143 11 17.7143C12.5125 17.7143 13.75 19.0429 13.75 20.6667C13.75 22.2905 12.5125 23.619 11 23.619ZM6.875 10.3333V7.38095C6.875 4.93048 8.7175 2.95238 11 2.95238C13.2825 2.95238 15.125 4.93048 15.125 7.38095V10.3333H6.875Z" fill="url(#paint0_linear_43_242)"/>
<defs>
<linearGradient id="paint0_linear_43_242" x1="11" y1="0" x2="11" y2="31" gradientUnits="userSpaceOnUse">
<stop stop-color="#FFBF00"/>
<stop offset="1" stop-color="#F2A60C"/>
</linearGradient>
</defs>
</svg>
