<svg width="14" height="6" viewBox="0 0 14 6" fill="none" xmlns="http://www.w3.org/2000/svg">
<path d="M7 1L7.5547 0.16795C7.2188 -0.0559832 6.7812 -0.0559832 6.4453 0.16795L7 1ZM0.4453 4.16795C-0.0142288 4.4743 -0.138403 5.09517 0.16795 5.5547C0.474302 6.01423 1.09517 6.1384 1.5547 5.83205L0.4453 4.16795ZM12.4453 5.83205C12.9048 6.1384 13.5257 6.01423 13.8321 5.5547C14.1384 5.09517 14.0142 4.4743 13.5547 4.16795L12.4453 5.83205ZM12.8723 4.91489L12.3176 5.74694V5.74694L12.8723 4.91489ZM6.4453 1.83205L12.3176 5.74694L13.427 4.08284L7.5547 0.16795L6.4453 1.83205ZM12.3176 5.74694L12.4453 5.83205L13.5547 4.16795L13.427 4.08284L12.3176 5.74694ZM6.4453 0.16795L3.4453 2.16795L4.5547 3.83205L7.5547 1.83205L6.4453 0.16795ZM3.4453 2.16795L0.4453 4.16795L1.5547 5.83205L4.5547 3.83205L3.4453 2.16795Z" fill="#B3B3B3"/>
</svg>
