<svg width="20" height="11" viewBox="0 0 20 11" fill="none" xmlns="http://www.w3.org/2000/svg">
<path d="M0.998793 4.5C0.446508 4.50067 -0.000666022 4.94892 7.15256e-07 5.50121C0.000667512 6.05349 0.448923 6.50067 1.00121 6.5L0.998793 4.5ZM19 5.47827L19.6934 6.19884C19.89 6.00967 20.0007 5.74838 20 5.47555C19.9993 5.20273 19.8871 4.94205 19.6895 4.75394L19 5.47827ZM15.51 0.775674C15.11 0.394897 14.477 0.410508 14.0962 0.810542C13.7154 1.21058 13.731 1.84355 14.1311 2.22433L15.51 0.775674ZM14.1272 8.77943C13.7292 9.16237 13.717 9.79542 14.1 10.1934C14.4829 10.5913 15.116 10.6035 15.5139 10.2206L14.1272 8.77943ZM1.00121 6.5L19.0012 6.47827L18.9988 4.47827L0.998793 4.5L1.00121 6.5ZM19.6895 4.75394L15.51 0.775674L14.1311 2.22433L18.3105 6.20259L19.6895 4.75394ZM18.3066 4.7577L14.1272 8.77943L15.5139 10.2206L19.6934 6.19884L18.3066 4.7577Z" fill="#332200"/>
</svg>
