<svg width="32" height="32" viewBox="0 0 22 24" fill="none" xmlns="http://www.w3.org/2000/svg">
<path d="M2.82564 6.0343C1.02118 8.00384 0.00518599 10.6733 1.97981e-05 13.4584C-0.00514639 16.2435 1.00094 18.9174 2.79808 20.8949C4.82414 15.7809 8.43521 11.5093 12.9422 8.96731C9.05208 12.5594 6.42613 17.5145 5.51327 22.9856C9.09678 24.8356 13.5072 24.1588 16.4705 20.925C20.5916 16.4277 21.7493 4.16921 21.9974 0.800011C22.006 0.692956 21.9931 0.585136 21.9594 0.484138C21.9258 0.38314 21.8722 0.291418 21.8026 0.215426C21.733 0.139433 21.6489 0.0810173 21.5564 0.0442882C21.4638 0.00755901 21.365 -0.00659086 21.2669 0.00283391C18.1796 0.273573 6.94667 1.53702 2.82564 6.0343Z" fill="url(#paint0_linear_43_213)"/>
<defs>
<linearGradient id="paint0_linear_43_213" x1="11" y1="0" x2="11" y2="24" gradientUnits="userSpaceOnUse">
<stop stop-color="#FFBF00"/>
<stop offset="1" stop-color="#F2A60C"/>
</linearGradient>
</defs>
</svg>
