<svg width="32" height="32" viewBox="0 0 20 17" fill="none" xmlns="http://www.w3.org/2000/svg">
<path d="M17.4609 6.38779C17.3623 6.54249 17.3039 6.72208 17.2916 6.90842C17.2793 7.09475 17.3135 7.28123 17.3909 7.44901C17.6389 8.06345 17.8139 8.70868 17.9109 9.36982C18.1683 11.0785 17.9276 12.8299 17.2209 14.3894C17.1351 14.5604 17.0068 14.7033 16.8499 14.8024C16.693 14.9016 16.5135 14.9532 16.3309 14.9518H3.68092C3.49729 14.9522 3.3171 14.899 3.16011 14.7979C3.00312 14.6968 2.87539 14.5518 2.79092 14.3788C2.1508 13.0007 1.87506 11.4641 1.9931 9.93286C2.11114 8.40158 2.61854 6.933 3.4612 5.68367C4.30386 4.43433 5.4502 3.45109 6.778 2.83874C8.10581 2.2264 9.56531 2.00792 11.0009 2.20658C11.7273 2.29719 12.4378 2.4973 13.1109 2.80087C13.269 2.88298 13.4447 2.91935 13.6203 2.9063C13.7959 2.89326 13.9651 2.83126 14.1109 2.72658C14.2628 2.6204 14.3845 2.47227 14.463 2.29814C14.5414 2.12401 14.5736 1.93047 14.5561 1.73836C14.5387 1.54624 14.4721 1.36283 14.3637 1.20785C14.2553 1.05287 14.1091 0.932206 13.9409 0.858835C12.0091 -0.0202186 9.86542 -0.230944 7.81433 0.256591C5.76324 0.744126 3.90906 1.90513 2.51517 3.57469C1.12129 5.24425 0.258569 7.33746 0.0495679 9.55699C-0.159433 11.7765 0.295911 14.0095 1.35092 15.9388C1.52543 16.2595 1.77601 16.5263 2.07775 16.7124C2.37949 16.8986 2.72189 16.9977 3.07092 17H16.9209C17.2733 17.0015 17.6199 16.9041 17.9254 16.7177C18.231 16.5314 18.4847 16.2627 18.6609 15.9388C19.4333 14.5183 19.8849 12.9271 19.9804 11.2902C20.0758 9.65332 19.8124 8.01523 19.2109 6.50452C19.1347 6.33235 19.0163 6.18507 18.8681 6.0781C18.7199 5.97112 18.5474 5.90839 18.3685 5.89646C18.1896 5.88452 18.011 5.92383 17.8513 6.01027C17.6917 6.09671 17.5568 6.22709 17.4609 6.38779Z" fill="url(#paint0_linear_38_73)"/>
<path d="M10.591 8.12894C10.2157 8.5272 10.0049 9.06735 10.0049 9.63057C10.0049 9.90944 10.0566 10.1856 10.1572 10.4432C10.2578 10.7009 10.4052 10.935 10.591 11.1322C10.7768 11.3294 10.9974 11.4858 11.2402 11.5925C11.483 11.6993 11.7432 11.7542 12.006 11.7542C12.5367 11.7542 13.0457 11.5304 13.421 11.1322L19.081 2.12244L10.591 8.12894V8.12894Z" fill="url(#paint1_linear_38_73)"/>
<defs>
<linearGradient id="paint0_linear_38_73" x1="9.99972" y1="0" x2="9.99972" y2="17" gradientUnits="userSpaceOnUse">
<stop stop-color="#FFBF00"/>
<stop offset="1" stop-color="#F2A60C"/>
</linearGradient>
<linearGradient id="paint1_linear_38_73" x1="14.5429" y1="2.12244" x2="14.5429" y2="11.7542" gradientUnits="userSpaceOnUse">
<stop stop-color="#FFBF00"/>
<stop offset="1" stop-color="#F2A60C"/>
</linearGradient>
</defs>
</svg>
